<mxfile host="app.diagrams.net" modified="2020-09-28T17:06:55.963Z" agent="5.0 (Windows)" etag="8HL64Bv0rkjVmXZUjrNC" version="13.7.6" type="github">
  <diagram name="Page-1" id="16e2658f-23c8-b752-8be9-c03fbebb8bbe">
    <mxGraphModel dx="1422" dy="773" grid="1" gridSize="10" guides="1" tooltips="1" connect="1" arrows="1" fold="1" page="1" pageScale="1" pageWidth="1100" pageHeight="850" background="#FFFFFF" math="0" shadow="0">
      <root>
        <mxCell id="0" />
        <mxCell id="1" parent="0" />
        <mxCell id="XJaF_dUkGwU_c3xw0yU6-4" value="" style="pointerEvents=1;verticalLabelPosition=bottom;shadow=1;align=center;html=1;verticalAlign=top;shape=mxgraph.electrical.capacitors.capacitor_1;rotation=90;strokeWidth=2;sketch=0;" vertex="1" parent="1">
          <mxGeometry x="340" y="190" width="120" height="60" as="geometry" />
        </mxCell>
        <mxCell id="XJaF_dUkGwU_c3xw0yU6-5" value="" style="endArrow=none;html=1;strokeWidth=2;shadow=0;sketch=0;" edge="1" parent="1">
          <mxGeometry width="50" height="50" relative="1" as="geometry">
            <mxPoint x="400" y="160" as="sourcePoint" />
            <mxPoint x="480" y="160" as="targetPoint" />
          </mxGeometry>
        </mxCell>
        <mxCell id="XJaF_dUkGwU_c3xw0yU6-9" value="" style="endArrow=none;html=1;entryX=1;entryY=0.5;entryDx=0;entryDy=0;entryPerimeter=0;strokeWidth=2;shadow=0;sketch=0;" edge="1" parent="1" target="XJaF_dUkGwU_c3xw0yU6-4">
          <mxGeometry width="50" height="50" relative="1" as="geometry">
            <mxPoint x="400" y="360" as="sourcePoint" />
            <mxPoint x="460" y="320" as="targetPoint" />
          </mxGeometry>
        </mxCell>
        <mxCell id="XJaF_dUkGwU_c3xw0yU6-10" value="" style="pointerEvents=1;verticalLabelPosition=bottom;shadow=1;align=center;html=1;verticalAlign=top;shape=mxgraph.electrical.resistors.resistor_1;strokeWidth=2;sketch=0;" vertex="1" parent="1">
          <mxGeometry x="480" y="150" width="100" height="20" as="geometry" />
        </mxCell>
        <mxCell id="XJaF_dUkGwU_c3xw0yU6-11" value="" style="endArrow=none;html=1;exitX=1;exitY=0.5;exitDx=0;exitDy=0;exitPerimeter=0;strokeWidth=2;shadow=0;sketch=0;" edge="1" parent="1" source="XJaF_dUkGwU_c3xw0yU6-10">
          <mxGeometry width="50" height="50" relative="1" as="geometry">
            <mxPoint x="650" y="210" as="sourcePoint" />
            <mxPoint x="680" y="160" as="targetPoint" />
          </mxGeometry>
        </mxCell>
        <mxCell id="XJaF_dUkGwU_c3xw0yU6-14" value="" style="pointerEvents=1;verticalLabelPosition=bottom;shadow=1;align=center;html=1;verticalAlign=top;shape=mxgraph.electrical.inductors.inductor_5;rotation=90;strokeWidth=2;sketch=0;" vertex="1" parent="1">
          <mxGeometry x="607.5" y="282.5" width="145" height="14" as="geometry" />
        </mxCell>
        <mxCell id="XJaF_dUkGwU_c3xw0yU6-15" value="" style="endArrow=none;html=1;exitX=0;exitY=0.645;exitDx=0;exitDy=0;exitPerimeter=0;strokeWidth=2;shadow=0;sketch=0;" edge="1" parent="1" source="XJaF_dUkGwU_c3xw0yU6-14">
          <mxGeometry width="50" height="50" relative="1" as="geometry">
            <mxPoint x="520" y="420" as="sourcePoint" />
            <mxPoint x="680" y="160" as="targetPoint" />
          </mxGeometry>
        </mxCell>
        <mxCell id="XJaF_dUkGwU_c3xw0yU6-16" value="" style="endArrow=none;html=1;entryX=1;entryY=0.645;entryDx=0;entryDy=0;entryPerimeter=0;strokeWidth=2;shadow=0;sketch=0;" edge="1" parent="1" target="XJaF_dUkGwU_c3xw0yU6-14">
          <mxGeometry width="50" height="50" relative="1" as="geometry">
            <mxPoint x="400" y="360" as="sourcePoint" />
            <mxPoint x="570" y="370" as="targetPoint" />
          </mxGeometry>
        </mxCell>
      </root>
    </mxGraphModel>
  </diagram>
</mxfile>
